<?xml version="1.0" encoding="UTF-8"?>
<!DOCTYPE svg PUBLIC "-//W3C//DTD SVG 1.1//EN" "http://www.w3.org/Graphics/SVG/1.1/DTD/svg11.dtd">
<!-- Creator: CorelDRAW -->
<svg xmlns="http://www.w3.org/2000/svg" xml:space="preserve" width="2048px" height="2048px" style="shape-rendering:geometricPrecision; text-rendering:geometricPrecision; image-rendering:optimizeQuality; fill-rule:evenodd; clip-rule:evenodd"
viewBox="0 0 2048 2048"
 xmlns:xlink="http://www.w3.org/1999/xlink">
 <defs>
  <style type="text/css">
   <![CDATA[
    .fil2 {fill:none}
    .fil1 {fill:orange}
    .fil0 {fill:#FF4433}
    .fil6 {fill:#F4511E}
    .fil7 {fill:#F57F17}
    .fil5 {fill:#FBC02D}
    .fil3 {fill:#C0CA33;fill-rule:nonzero}
    .fil4 {fill:#DCE775;fill-rule:nonzero}
   ]]>
  </style>
   <clipPath id="id0">
    <path d="M1024 0c565.539,0 1024,458.461 1024,1024 0,565.539 -458.461,1024 -1024,1024 -565.539,0 -1024,-458.461 -1024,-1024 0,-565.539 458.461,-1024 1024,-1024z"/>
   </clipPath>
 </defs>
 <g id="Layer_x0020_1">
  <metadata id="CorelCorpID_0Corel-Layer"/>
  <path class="fil0" d="M1024 0c565.539,0 1024,458.461 1024,1024 0,565.539 -458.461,1024 -1024,1024 -565.539,0 -1024,-458.461 -1024,-1024 0,-565.539 458.461,-1024 1024,-1024z"/>
  <g style="clip-path:url(#id0)">
   <g id="_341190856">
    <g>
     <polygon id="_4558236881" class="fil1" points="1579.25,517.105 2715.13,1652.99 2715.13,1699.66 1579.25,563.777 "/>
     <polygon id="_455823832" class="fil1" points="1579.25,563.777 2715.13,1699.66 2645.04,1699.66 1509.16,563.777 "/>
     <polygon id="_455824000" class="fil1" points="1509.16,563.777 2645.04,1699.66 2594.27,1923.39 1458.39,787.504 "/>
     <polygon id="_455823880" class="fil1" points="1584,787.504 2719.88,1923.39 2714.67,1951.01 1578.79,815.124 "/>
     <polygon id="_455823664" class="fil1" points="1578.79,815.124 2714.67,1951.01 2613.46,2487.73 1477.57,1351.84 "/>
     <polygon id="_455824024" class="fil1" points="1477.57,1351.84 2613.46,2487.73 2609.86,2506.78 1473.98,1370.9 "/>
     <polygon id="_455824240" class="fil1" points="1473.98,1370.9 2609.86,2506.78 2590.58,2506.78 1454.69,1370.9 "/>
     <polygon id="_455824432" class="fil1" points="1020.6,1032.08 2156.48,2167.96 2158.69,2170.21 2160.84,2172.54 2162.94,2174.92 2164.97,2177.37 2166.95,2179.88 2168.87,2182.45 2170.74,2185.07 2172.55,2187.74 2174.31,2190.46 1038.43,1054.58 1036.67,1051.86 1034.86,1049.19 1032.99,1046.57 1031.07,1044 1029.09,1041.49 1027.06,1039.04 1024.96,1036.65 1022.81,1034.33 "/>
     <polygon id="_455824384" class="fil1" points="1038.43,1054.58 2174.31,2190.46 2175.86,2192.98 2177.36,2195.53 2178.82,2198.12 2180.23,2200.75 2181.59,2203.41 2182.91,2206.09 2184.18,2208.81 2185.41,2211.55 2186.6,2214.31 2187.74,2217.1 2188.84,2219.9 2189.9,2222.72 2190.92,2225.55 2191.9,2228.4 2192.84,2231.26 2193.74,2234.12 2194.6,2236.99 2195.43,2239.86 2196.21,2242.73 2196.96,2245.61 2197.68,2248.47 2198.36,2251.34 2199,2254.19 2199.61,2257.04 2200.19,2259.87 2200.73,2262.69 2201.24,2265.49 2201.72,2268.27 2202.17,2271.04 2202.58,2273.77 2202.97,2276.49 2203.33,2279.17 1067.45,1143.29 1067.09,1140.61 1066.7,1137.89 1066.28,1135.15 1065.84,1132.39 1065.36,1129.61 1064.85,1126.81 1064.31,1123.99 1063.73,1121.16 1063.12,1118.31 1062.48,1115.46 1061.8,1112.59 1061.08,1109.72 1060.33,1106.85 1059.55,1103.98 1058.72,1101.1 1057.86,1098.24 1056.96,1095.37 1056.02,1092.52 1055.04,1089.67 1054.02,1086.84 1052.96,1084.02 1051.86,1081.21 1050.72,1078.43 1049.53,1075.67 1048.3,1072.93 1047.03,1070.21 1045.71,1067.52 1044.35,1064.87 1042.94,1062.24 1041.48,1059.65 1039.98,1057.1 "/>
     <polygon id="_455824528" class="fil1" points="1110.15,1153.58 2246.03,2289.46 2247.03,2290.76 2247.96,2292.11 2248.83,2293.5 2249.64,2294.93 2250.38,2296.4 2251.06,2297.9 2251.67,2299.43 2252.22,2300.99 2252.71,2302.56 2253.13,2304.16 2253.48,2305.77 2253.78,2307.39 2254,2309.02 2254.16,2310.66 2254.26,2312.29 2254.29,2313.93 2254.29,2337.1 2254.26,2338.73 2254.16,2340.37 2254,2342 2253.78,2343.63 2253.48,2345.26 2253.13,2346.87 2252.71,2348.46 2252.22,2350.04 2251.67,2351.59 2251.06,2353.12 2250.38,2354.62 2249.64,2356.09 2248.83,2357.52 2247.96,2358.91 2247.03,2360.26 2246.03,2361.56 2245.08,2362.69 2244.09,2363.77 2243.05,2364.79 2241.98,2365.76 2240.86,2366.67 2239.71,2367.52 2238.52,2368.3 2237.29,2369.01 2236.03,2369.65 2234.73,2370.22 2233.4,2370.7 2232.03,2371.11 2230.63,2371.43 2229.2,2371.66 2227.74,2371.81 2226.25,2371.85 2202.75,2371.85 1066.86,1235.97 1090.37,1235.97 1091.86,1235.92 1093.32,1235.78 1094.75,1235.55 1096.15,1235.23 1097.52,1234.82 1098.85,1234.33 1100.15,1233.77 1101.41,1233.13 1102.64,1232.42 1103.83,1231.63 1104.98,1230.79 1106.1,1229.88 1107.17,1228.91 1108.2,1227.89 1109.2,1226.81 1110.15,1225.68 1111.15,1224.38 1112.08,1223.03 1112.95,1221.64 1113.76,1220.21 1114.5,1218.74 1115.18,1217.24 1115.79,1215.71 1116.34,1214.16 1116.83,1212.58 1117.25,1210.98 1117.6,1209.37 1117.89,1207.75 1118.12,1206.12 1118.28,1204.49 1118.38,1202.85 1118.41,1201.22 1118.41,1178.05 1118.38,1176.41 1118.28,1174.78 1118.12,1173.14 1117.89,1171.51 1117.6,1169.89 1117.25,1168.28 1116.83,1166.68 1116.34,1165.1 1115.79,1163.55 1115.18,1162.02 1114.5,1160.52 1113.76,1159.05 1112.95,1157.62 1112.08,1156.23 1111.15,1154.88 "/>
     <polygon id="_455824792" class="fil1" points="1107.17,1150.35 2243.05,2286.23 2244.09,2287.25 2245.08,2288.33 2246.03,2289.46 1110.15,1153.58 1109.2,1152.45 1108.21,1151.37 "/>
     <polygon id="_455824168" class="fil1" points="1454.69,1370.9 2590.58,2506.78 2339.55,2506.78 1203.67,1370.9 "/>
     <polygon id="_455824696" class="fil1" points="1066.86,1235.97 2202.75,2371.85 2202.36,2374.45 2201.95,2377.06 2201.51,2379.7 2201.04,2382.35 2200.55,2385.02 2200.02,2387.7 2199.47,2390.4 2198.88,2393.1 2198.26,2395.82 2197.61,2398.54 2196.93,2401.27 2196.22,2404 2195.47,2406.73 2194.69,2409.46 2193.88,2412.18 2193.03,2414.91 2192.15,2417.62 2191.23,2420.33 2190.27,2423.03 2189.28,2425.71 2188.25,2428.38 2187.18,2431.04 2186.07,2433.68 2184.93,2436.29 2183.74,2438.89 2182.52,2441.46 2181.26,2444.01 2179.95,2446.52 2178.6,2449.01 2177.22,2451.47 2175.79,2453.9 2174.31,2456.28 1038.43,1320.4 1039.9,1318.01 1041.34,1315.59 1042.72,1313.13 1044.07,1310.64 1045.37,1308.12 1046.64,1305.58 1047.86,1303 1049.05,1300.41 1050.19,1297.79 1051.3,1295.16 1052.37,1292.5 1053.4,1289.83 1054.39,1287.15 1055.34,1284.45 1056.26,1281.74 1057.15,1279.02 1058,1276.3 1058.81,1273.57 1059.59,1270.84 1060.34,1268.11 1061.05,1265.38 1061.73,1262.66 1062.38,1259.93 1063,1257.22 1063.59,1254.51 1064.14,1251.82 1064.67,1249.13 1065.16,1246.47 1065.63,1243.81 1066.07,1241.18 1066.48,1238.56 "/>
     <polygon id="_455824336" class="fil1" points="1203.67,1370.9 2339.55,2506.78 2320.26,2506.78 1184.38,1370.9 "/>
     <polygon id="_455824600" class="fil1" points="1038.43,1320.4 2174.31,2456.28 2172.55,2459.01 2170.74,2461.68 2168.87,2464.3 2166.95,2466.87 2164.97,2469.38 2162.94,2471.82 2160.84,2474.21 2158.69,2476.53 2156.48,2478.79 2154.21,2480.98 2151.89,2483.09 2149.49,2485.14 2147.04,2487.1 2144.53,2488.99 2141.95,2490.8 2139.31,2492.52 2136.61,2494.15 2133.84,2495.7 2131.01,2497.16 2128.11,2498.53 2125.14,2499.8 2122.1,2500.97 2119,2502.04 2115.83,2503.01 2112.59,2503.87 2109.27,2504.63 2105.89,2505.28 2102.44,2505.81 2098.91,2506.23 2095.31,2506.53 2091.64,2506.72 2087.89,2506.78 952.008,1370.9 955.756,1370.83 959.429,1370.65 963.029,1370.35 966.556,1369.93 970.009,1369.39 973.393,1368.75 976.705,1367.99 979.946,1367.13 983.118,1366.16 986.221,1365.09 989.257,1363.91 992.225,1362.64 995.124,1361.28 997.959,1359.82 1000.73,1358.27 1003.43,1356.64 1006.07,1354.91 1008.65,1353.11 1011.16,1351.22 1013.61,1349.25 1016,1347.21 1018.33,1345.1 1020.6,1342.91 1022.81,1340.65 1024.96,1338.33 1027.06,1335.94 1029.09,1333.49 1031.07,1330.98 1032.99,1328.42 1034.86,1325.8 1036.67,1323.13 "/>
     <polygon id="_455824888" class="fil1" points="515.547,1235.97 1651.43,2371.85 1627.93,2371.85 1626.43,2371.81 1624.97,2371.66 1623.54,2371.43 1622.14,2371.11 1620.78,2370.7 1619.44,2370.22 1618.14,2369.65 1616.88,2369.01 1615.65,2368.3 1614.46,2367.52 1613.31,2366.67 1612.19,2365.76 476.312,1229.88 477.427,1230.79 478.58,1231.64 479.77,1232.42 480.998,1233.13 482.262,1233.77 483.561,1234.33 484.895,1234.82 486.261,1235.23 487.661,1235.55 489.093,1235.78 490.554,1235.92 492.045,1235.97 "/>
     <polygon id="_455825464" class="fil1" points="630.403,1370.9 1766.28,2506.78 1762.54,2506.72 1758.86,2506.53 1755.26,2506.23 1751.74,2505.81 1748.28,2505.28 1744.9,2504.63 1741.59,2503.87 1738.35,2503.01 1735.17,2502.04 1732.07,2500.97 1729.03,2499.8 1726.07,2498.53 1723.17,2497.16 1720.33,2495.7 1717.56,2494.15 1714.86,2492.52 1712.22,2490.8 1709.64,2488.99 1707.13,2487.1 1704.68,2485.14 568.797,1349.25 571.249,1351.22 573.762,1353.11 576.338,1354.91 578.978,1356.64 581.683,1358.27 584.451,1359.82 587.286,1361.28 590.187,1362.64 593.154,1363.91 596.189,1365.09 599.292,1366.16 602.464,1367.13 605.706,1367.99 609.018,1368.75 612.401,1369.39 615.856,1369.93 619.382,1370.35 622.982,1370.65 626.656,1370.83 "/>
     <polygon id="_455825128" class="fil1" points="952.008,1370.9 2087.89,2506.78 1766.28,2506.78 630.403,1370.9 "/>
    </g>
    <path id="_341190496" class="fil1" d="M1490.59 517.105l88.6536 0 0 46.6725 -70.0926 0 -50.7626 223.727 97.519 0 28.0878 0 -5.20748 27.6201 -101.218 536.719 -3.59292 19.0524 -19.2874 0 -251.028 0 -19.2874 0 -3.59292 -19.0524 -101.217 -536.719 -5.20867 -27.6201 28.089 0 308.233 0 57.215 -252.168 4.13622 -18.2315 18.5622 0zm-538.587 486.983c40.3725,0 67.9512,21.1961 86.4225,50.4933 16.7823,26.6197 25.3583,60.2233 29.015,88.7103l22.9205 0c8.03505,0 14.8276,4.14567 19.7823,10.2862 5.49567,6.80906 8.26418,15.7725 8.26418,24.4677l0 23.1721c0,8.69528 -2.77087,17.6551 -8.26536,24.4642 -4.95237,6.13701 -11.7496,10.2898 -19.7811,10.2898l-23.5016 0c-3.94725,27.528 -12.4843,59.1343 -28.4339,84.4312 -18.4713,29.2973 -46.05,50.4933 -86.4225,50.4933l-321.605 0c-40.3737,0 -67.9524,-21.1961 -86.4213,-50.4945 -15.9508,-25.2969 -24.4878,-56.902 -28.4351,-84.43l-23.5016 0c-8.03268,0 -14.8311,-4.14922 -19.7847,-10.2886 -5.49567,-6.80906 -8.26182,-15.7689 -8.26182,-24.4654l0 -23.1721c0,-8.69646 2.7626,-17.6599 8.26064,-24.4713 4.95591,-6.14056 11.7496,-10.2827 19.7858,-10.2827l22.9205 0c3.6567,-28.487 12.2327,-62.0906 29.0162,-88.7103 18.4713,-29.2973 46.0477,-50.4933 86.4213,-50.4933l321.605 0z"/>
   </g>
  </g>
  <path class="fil2" d="M1024 0c565.539,0 1024,458.461 1024,1024 0,565.539 -458.461,1024 -1024,1024 -565.539,0 -1024,-458.461 -1024,-1024 0,-565.539 458.461,-1024 1024,-1024z"/>
  <polygon class="fil3" points="1408.78,795.876 1467.9,535.336 1472.03,517.105 1490.59,517.105 1579.25,517.105 1579.25,563.777 1509.16,563.777 1456.49,795.876 "/>
  <polygon class="fil4" points="1102.45,787.504 1555.91,787.504 1584,787.504 1578.79,815.124 1477.57,1351.84 1473.98,1370.9 1454.69,1370.9 1203.67,1370.9 1184.38,1370.9 1180.79,1351.84 1079.57,815.124 1074.36,787.504 "/>
  <path class="fil5" d="M513.944 1222.61l554.523 0c-2.91378,30.1902 -11.4331,68.2808 -30.0366,97.7883 -18.4713,29.2973 -46.05,50.4933 -86.4225,50.4933l-321.605 0c-40.3737,0 -67.9524,-21.1961 -86.4213,-50.4945 -18.6047,-29.5063 -27.124,-67.5969 -30.0378,-97.7871z"/>
  <path class="fil6" d="M821.123 1299.08c-8.26182,0 -14.9587,-8.29843 -14.9587,-18.5351 0,-10.2378 6.69686,-18.5351 14.9587,-18.5351 8.25946,0 14.9563,8.29725 14.9563,18.5351 0,10.2366 -6.69686,18.5351 -14.9563,18.5351z"/>
  <path class="fil6" d="M716.415 1299.07c-8.26064,0 -14.9575,-8.29843 -14.9575,-18.5351 0,-10.2366 6.69686,-18.5351 14.9575,-18.5351 8.26064,0 14.9575,8.29843 14.9575,18.5351 0,10.2366 -6.69686,18.5351 -14.9575,18.5351z"/>
  <path class="fil6" d="M641.623 1317.61c-8.26064,0 -14.9575,-8.29843 -14.9575,-18.5351 0,-10.2366 6.69686,-18.5351 14.9575,-18.5351 8.26182,0 14.9587,8.29843 14.9587,18.5351 0,10.2366 -6.69686,18.5351 -14.9587,18.5351z"/>
  <path class="fil6" d="M948.858 1317.61c-8.26064,0 -14.9587,-8.29843 -14.9587,-18.5351 0,-10.2366 6.69804,-18.5351 14.9587,-18.5351 8.26182,0 14.9587,8.29843 14.9587,18.5351 0,10.2366 -6.69686,18.5351 -14.9587,18.5351z"/>
  <path class="fil6" d="M874.066 1336.15c-8.26064,0 -14.9563,-8.29843 -14.9563,-18.5351 0,-10.2378 6.69567,-18.5351 14.9563,-18.5351 8.26182,0 14.9587,8.29725 14.9587,18.5351 0,10.2366 -6.69686,18.5351 -14.9587,18.5351z"/>
  <path class="fil5" d="M1038.43 1054.58c18.6036,29.5087 27.1229,67.5993 30.0366,97.7894l-554.523 0c2.91378,-30.1902 11.4331,-68.2808 30.0378,-97.7894 18.4713,-29.2973 46.0477,-50.4933 86.4213,-50.4933l321.605 0c40.3725,0 67.9512,21.1961 86.4225,50.4933z"/>
  <path class="fil7" d="M492.045 1143.29c-8.03623,0 -14.8299,4.14213 -19.7858,10.2827 -5.49804,6.81142 -8.26064,15.7748 -8.26064,24.4713l0 23.1721c0,8.69646 2.76614,17.6563 8.26182,24.4654 4.95355,6.13937 11.752,10.2886 19.7847,10.2886l598.321 0c8.0315,0 14.8288,-4.15276 19.7811,-10.2898 5.49449,-6.80906 8.26536,-15.7689 8.26536,-24.4642l0 -23.1721c0,-8.69528 -2.76851,-17.6587 -8.26418,-24.4677 -4.95473,-6.14056 -11.7473,-10.2862 -19.7823,-10.2862l-598.321 0z"/>
  <path class="fil6" d="M851.431 1063.7c8.26182,0 14.9587,8.29843 14.9587,18.5351 0,10.2366 -6.69686,18.5362 -14.9587,18.5362 -8.26064,0 -14.9563,-8.29961 -14.9563,-18.5362 0,-10.2366 6.69567,-18.5351 14.9563,-18.5351z"/>
  <path class="fil6" d="M948.857 1063.7c8.26182,0 14.9587,8.29843 14.9587,18.5351 0,10.2366 -6.69686,18.5362 -14.9587,18.5362 -8.26064,0 -14.9575,-8.29961 -14.9575,-18.5362 0,-10.2366 6.69686,-18.5351 14.9575,-18.5351z"/>
  <path class="fil6" d="M596.748 1082.24c8.26064,0 14.9587,8.29843 14.9587,18.5351 0,10.2366 -6.69804,18.5351 -14.9587,18.5351 -8.25946,0 -14.9575,-8.29843 -14.9575,-18.5351 0,-10.2366 6.69804,-18.5351 14.9575,-18.5351z"/>
  <path class="fil6" d="M754.007 1063.7c8.25946,0 14.9587,8.29843 14.9587,18.5351 0,10.2366 -6.69922,18.5362 -14.9587,18.5362 -8.26064,0 -14.9575,-8.29961 -14.9575,-18.5362 0,-10.2366 6.69686,-18.5351 14.9575,-18.5351z"/>
  <path class="fil6" d="M656.581 1063.7c8.26064,0 14.9587,8.29843 14.9587,18.5351 0,10.2366 -6.69804,18.5362 -14.9587,18.5362 -8.26064,0 -14.9575,-8.29961 -14.9575,-18.5362 0,-10.2366 6.69686,-18.5351 14.9575,-18.5351z"/>
 </g>
</svg>
