<?xml version="1.0" encoding="utf-8"?>
<!-- Uploaded to: SVG Repo, www.svgrepo.com, Generator: SVG Repo Mixer Tools -->
<svg fill="#000000" version="1.1" id="Layer_1" xmlns="http://www.w3.org/2000/svg" xmlns:xlink="http://www.w3.org/1999/xlink" 
	 width="800px" height="800px" viewBox="0 0 256 241" enable-background="new 0 0 256 241" xml:space="preserve">
<path d="M254,188V2H2v186h111v29H75v22h106v-22h-38v-29H254z M19,19h217v151H19L19,19z M75.397,68.237l8.796,68.658h29.376
	l8.71-68.658H86.327l-7.173-24.85l-3.928,1.11l6.832,23.654L75.397,68.237z M126.463,108.287c0,0-1.11-9.991,14.176-9.991h24.338
	c15.2,0,14.176,9.991,14.176,9.991H126.463z M179.066,126.903c0,0,1.025,9.991-14.176,9.991h-24.252
	c-15.286,0-14.176-9.991-14.176-9.991H179.066z M128.769,122.036c-2.476,0-4.526-1.964-4.526-4.526c0-2.476,1.964-4.526,4.526-4.526
	h48.334c2.476,0,4.526,1.964,4.526,4.526c0,2.476-2.049,4.526-4.526,4.526H128.769z M182.653,150.387H73.347v-8.283h109.306V150.387
	z"/>
</svg>