<svg id="visual" viewBox="0 0 900 450" width="900" height="450" xmlns="http://www.w3.org/2000/svg" xmlns:xlink="http://www.w3.org/1999/xlink" version="1.1"><rect x="0" y="0" width="900" height="450" fill="#F7770F"></rect><defs><linearGradient id="grad1_0" x1="50%" y1="0%" x2="100%" y2="100%"><stop offset="10%" stop-color="#f7770f" stop-opacity="1"></stop><stop offset="90%" stop-color="#f7770f" stop-opacity="1"></stop></linearGradient></defs><defs><linearGradient id="grad2_0" x1="0%" y1="0%" x2="50%" y2="100%"><stop offset="10%" stop-color="#f7770f" stop-opacity="1"></stop><stop offset="90%" stop-color="#f7770f" stop-opacity="1"></stop></linearGradient></defs><g transform="translate(900, 0)"><path d="M0 157.5C-28.8 154.1 -57.5 150.7 -78.7 136.4C-100 122.1 -113.7 97 -125.6 72.5C-137.4 48 -147.5 24 -157.5 0L0 0Z" fill="#FBAE3C"></path></g><g transform="translate(0, 450)"><path d="M0 -157.5C28.1 -153.7 56.1 -149.9 78.7 -136.4C101.4 -122.9 118.6 -99.8 130.8 -75.5C143 -51.2 150.2 -25.6 157.5 0L0 0Z" fill="#FBAE3C"></path></g></svg>