<?xml version="1.0" standalone="no"?>
<!DOCTYPE svg PUBLIC "-//W3C//DTD SVG 20010904//EN"
 "http://www.w3.org/TR/2001/REC-SVG-20010904/DTD/svg10.dtd">
<svg version="1.0" xmlns="http://www.w3.org/2000/svg"
 width="512.000000pt" height="512.000000pt" viewBox="0 0 512.000000 512.000000"
 preserveAspectRatio="xMidYMid meet">
<metadata>
Created by potrace 1.16, written by Peter Selinger 2001-2019
</metadata>
<g transform="translate(0.000000,512.000000) scale(0.100000,-0.100000)"
fill="#5f5f5f" stroke="none">
<path d="M1507 4813 c-4 -3 -7 -107 -7 -230 l0 -223 -750 0 -750 0 0 -1805 0
-1805 750 0 750 0 2 -222 3 -223 603 -3 602 -2 0 80 0 80 -525 0 -525 0 0
1795 0 1795 900 0 900 0 0 -370 0 -370 80 0 80 0 0 145 0 145 675 0 675 0 0
-1345 0 -1345 -675 0 -675 0 -2 1128 -3 1127 -77 3 -78 3 0 -1356 0 -1355
-155 0 -156 0 3 -77 3 -78 230 0 230 0 3 223 2 222 750 0 750 0 0 1805 0 1805
-750 0 -750 0 -2 228 -3 227 -1051 3 c-578 1 -1054 -1 -1057 -5z m1953 -378
l0 -225 -900 0 -900 0 0 225 0 225 900 0 900 0 0 -225z m-1960 -455 l0 -220
-450 0 -450 0 0 -80 0 -80 450 0 450 0 0 -1345 0 -1345 -670 0 -670 0 0 1345
0 1345 150 0 150 0 0 80 0 80 -150 0 -150 0 0 220 0 220 670 0 670 0 0 -220z
m3460 0 l0 -220 -670 0 -670 0 0 220 0 220 670 0 670 0 0 -220z"/>
<path d="M1810 4440 l0 -80 80 0 80 0 0 80 0 80 -80 0 -80 0 0 -80z"/>
<path d="M2110 4440 l0 -80 80 0 81 0 -3 78 -3 77 -77 3 -78 3 0 -81z"/>
<path d="M300 3990 l0 -80 80 0 80 0 0 80 0 80 -80 0 -80 0 0 -80z"/>
<path d="M760 3236 c0 -74 0 -74 -29 -81 -87 -19 -161 -121 -161 -221 0 -69
41 -148 98 -188 37 -26 53 -30 137 -36 71 -5 99 -11 115 -25 24 -22 26 -62 4
-93 -15 -21 -21 -22 -185 -22 l-169 0 0 -80 0 -80 95 0 95 0 0 -75 0 -75 75 0
75 0 0 73 0 72 49 18 c144 51 189 252 83 369 -48 53 -85 68 -190 75 -64 5 -90
11 -104 25 -24 24 -23 63 2 88 18 18 33 20 185 20 l165 0 0 80 0 80 -95 0 -95
0 0 75 0 75 -75 0 -75 0 0 -74z"/>
<path d="M457 1813 c-4 -3 -7 -39 -7 -80 l0 -73 380 0 380 0 0 80 0 80 -373 0
c-206 0 -377 -3 -380 -7z"/>
<path d="M457 1363 c-4 -3 -7 -39 -7 -80 l0 -73 80 0 80 0 0 80 0 80 -73 0
c-41 0 -77 -3 -80 -7z"/>
<path d="M757 1363 c-4 -3 -7 -39 -7 -80 l0 -73 80 0 80 0 0 80 0 80 -73 0
c-41 0 -77 -3 -80 -7z"/>
<path d="M3760 3990 l0 -80 80 0 80 0 0 80 0 80 -80 0 -80 0 0 -80z"/>
<path d="M2480 3686 l0 -74 -36 -12 c-151 -50 -197 -253 -85 -373 43 -47 93
-67 164 -67 35 0 78 -5 95 -11 63 -22 63 -106 -1 -129 -16 -5 -97 -10 -178
-10 l-149 0 0 -80 0 -80 95 0 95 0 0 -75 0 -75 80 0 80 0 0 80 c0 47 4 80 10
80 6 0 31 10 56 22 121 56 157 231 73 348 -39 54 -92 76 -199 84 -64 4 -89 10
-103 25 -24 24 -25 66 -2 91 17 18 32 20 187 20 l168 0 0 80 0 80 -95 0 -95 0
0 75 0 75 -80 0 -80 0 0 -74z"/>
<path d="M4210 3236 l0 -74 -37 -13 c-58 -19 -121 -83 -138 -142 -19 -63 -19
-81 0 -143 15 -53 59 -105 109 -132 18 -10 67 -19 118 -22 65 -4 92 -11 107
-24 28 -25 28 -77 0 -102 -19 -17 -40 -19 -185 -22 l-164 -3 0 -80 0 -79 95 0
95 0 0 -75 0 -75 80 0 80 0 0 78 0 78 36 13 c126 46 182 201 118 330 -39 78
-81 101 -205 115 -87 9 -104 14 -120 35 -24 30 -24 42 2 75 l20 26 170 0 169
0 0 80 0 80 -95 0 -95 0 0 75 0 75 -80 0 -80 0 0 -74z"/>
<path d="M1952 2183 l3 -78 603 -3 602 -2 0 80 0 80 -605 0 -606 0 3 -77z"/>
<path d="M3907 1813 c-4 -3 -7 -39 -7 -80 l0 -73 383 2 382 3 0 75 0 75 -376
3 c-206 1 -378 -1 -382 -5z"/>
<path d="M1952 1733 l3 -78 603 -3 602 -2 0 80 0 80 -605 0 -606 0 3 -77z"/>
<path d="M1957 1363 c-4 -3 -7 -39 -7 -80 l0 -73 605 0 605 0 0 80 0 80 -598
0 c-329 0 -602 -3 -605 -7z"/>
<path d="M3907 1363 c-4 -3 -7 -39 -7 -80 l0 -73 80 0 80 0 0 80 0 80 -73 0
c-41 0 -77 -3 -80 -7z"/>
<path d="M4204 1356 c-3 -7 -4 -42 -2 -77 l3 -64 78 -3 77 -3 0 81 0 80 -75 0
c-54 0 -77 -4 -81 -14z"/>
<path d="M1952 833 l3 -78 75 0 75 0 3 78 3 77 -81 0 -81 0 3 -77z"/>
<path d="M2252 833 l3 -78 75 0 75 0 3 78 3 77 -81 0 -81 0 3 -77z"/>
<path d="M2852 383 l3 -78 78 -3 77 -3 0 81 0 80 -80 0 -81 0 3 -77z"/>
</g>
</svg>
